# 3ds Max Wavefront OBJ Exporter v0.97b - (c)2007 guruware
# File Created: 22.04.2020 11:36:13

mtllib pillier_low.mtl

#
# object piller_low
#

v  -1.9350 1.6067 -4.2128
v  -1.9350 2.1487 -4.2128
v  -1.9350 2.1487 -4.1961
v  -1.9350 1.6067 -4.1961
v  -1.9449 1.6067 -4.2264
v  -1.9449 2.1487 -4.2264
v  -1.9608 1.6067 -4.2316
v  -1.9608 2.1487 -4.2316
v  -1.9767 1.6067 -4.2264
v  -1.9767 2.1487 -4.2264
v  -1.9866 1.6067 -4.2128
v  -1.9866 2.1487 -4.2128
v  -1.9866 1.6067 -4.1961
v  -1.9866 2.1487 -4.1961
v  -1.9767 1.6067 -4.1825
v  -1.9767 2.1487 -4.1825
v  -1.9608 1.6067 -4.1773
v  -1.9608 2.1487 -4.1773
v  -1.9449 1.6067 -4.1825
v  -1.9449 2.1487 -4.1825
v  -1.9331 2.1487 -4.2134
v  -1.9331 2.1582 -4.2134
v  -1.9331 2.1582 -4.1954
v  -1.9331 2.1487 -4.1954
v  -1.9437 2.1487 -4.2280
v  -1.9437 2.1582 -4.2280
v  -1.9608 2.1487 -4.2336
v  -1.9608 2.1582 -4.2336
v  -1.9779 2.1487 -4.2280
v  -1.9779 2.1582 -4.2280
v  -1.9885 2.1487 -4.2134
v  -1.9885 2.1582 -4.2134
v  -1.9885 2.1487 -4.1954
v  -1.9885 2.1582 -4.1954
v  -1.9779 2.1487 -4.1809
v  -1.9779 2.1582 -4.1809
v  -1.9608 2.1487 -4.1753
v  -1.9608 2.1582 -4.1753
v  -1.9437 2.1487 -4.1809
v  -1.9437 2.1582 -4.1809
v  -1.9350 2.1582 -4.2128
v  -1.9360 2.1941 -4.2125
v  -1.9360 2.1941 -4.1964
v  -1.9350 2.1582 -4.1961
v  -1.9449 2.1582 -4.2264
v  -1.9455 2.1941 -4.2255
v  -1.9608 2.1582 -4.2316
v  -1.9608 2.1941 -4.2305
v  -1.9767 2.1582 -4.2264
v  -1.9761 2.1941 -4.2255
v  -1.9866 2.1582 -4.2128
v  -1.9856 2.1941 -4.2125
v  -1.9866 2.1582 -4.1961
v  -1.9856 2.1941 -4.1964
v  -1.9767 2.1582 -4.1825
v  -1.9761 2.1941 -4.1833
v  -1.9608 2.1582 -4.1773
v  -1.9608 2.1941 -4.1784
v  -1.9449 2.1582 -4.1825
v  -1.9455 2.1941 -4.1833
v  -1.9498 2.2241 -4.2080
v  -1.9495 2.2251 -4.2081
v  -1.9495 2.2251 -4.2008
v  -1.9498 2.2241 -4.2009
v  -1.9540 2.2241 -4.2138
v  -1.9538 2.2251 -4.2140
v  -1.9608 2.2241 -4.2160
v  -1.9608 2.2251 -4.2163
v  -1.9676 2.2241 -4.2138
v  -1.9678 2.2251 -4.2140
v  -1.9718 2.2241 -4.2080
v  -1.9721 2.2251 -4.2081
v  -1.9718 2.2241 -4.2009
v  -1.9721 2.2251 -4.2008
v  -1.9676 2.2241 -4.1951
v  -1.9678 2.2251 -4.1948
v  -1.9608 2.2241 -4.1929
v  -1.9608 2.2251 -4.1926
v  -1.9540 2.2241 -4.1951
v  -1.9538 2.2251 -4.1948
v  -1.9537 2.2525 -4.2067
v  -1.9608 2.2550 -4.2044
v  -1.9537 2.2525 -4.2022
v  -1.9564 2.2525 -4.2104
v  -1.9608 2.2525 -4.2119
v  -1.9651 2.2525 -4.2104
v  -1.9678 2.2525 -4.2067
v  -1.9678 2.2525 -4.2022
v  -1.9651 2.2525 -4.1985
v  -1.9608 2.2525 -4.1970
v  -1.9564 2.2525 -4.1985
v  -1.9418 2.2122 -4.2106
v  -1.9418 2.2122 -4.1983
v  -1.9491 2.2122 -4.2206
v  -1.9608 2.2122 -4.2244
v  -1.9725 2.2122 -4.2206
v  -1.9798 2.2122 -4.2106
v  -1.9798 2.2122 -4.1983
v  -1.9725 2.2122 -4.1883
v  -1.9608 2.2122 -4.1845
v  -1.9491 2.2122 -4.1883
v  -1.9389 2.2031 -4.2116
v  -1.9389 2.2031 -4.1973
v  -1.9473 2.2031 -4.2231
v  -1.9608 2.2031 -4.2275
v  -1.9743 2.2031 -4.2231
v  -1.9827 2.2031 -4.2116
v  -1.9827 2.2031 -4.1973
v  -1.9743 2.2031 -4.1858
v  -1.9608 2.2031 -4.1814
v  -1.9473 2.2031 -4.1858
v  -1.9483 2.2323 -4.2085
v  -1.9483 2.2323 -4.2004
v  -1.9486 2.2393 -4.2084
v  -1.9486 2.2393 -4.2005
v  -1.9531 2.2323 -4.2151
v  -1.9532 2.2393 -4.2148
v  -1.9608 2.2323 -4.2176
v  -1.9608 2.2393 -4.2173
v  -1.9685 2.2323 -4.2151
v  -1.9683 2.2393 -4.2148
v  -1.9733 2.2323 -4.2085
v  -1.9730 2.2393 -4.2084
v  -1.9733 2.2323 -4.2004
v  -1.9730 2.2393 -4.2005
v  -1.9685 2.2323 -4.1938
v  -1.9683 2.2393 -4.1941
v  -1.9608 2.2323 -4.1913
v  -1.9608 2.2393 -4.1916
v  -1.9531 2.2323 -4.1938
v  -1.9532 2.2393 -4.1941
v  -1.9504 2.2460 -4.2011
v  -1.9504 2.2460 -4.2078
v  -1.9544 2.2460 -4.2133
v  -1.9608 2.2460 -4.2154
v  -1.9672 2.2460 -4.2133
v  -1.9712 2.2460 -4.2078
v  -1.9712 2.2460 -4.2011
v  -1.9672 2.2460 -4.1956
v  -1.9608 2.2460 -4.1935
v  -1.9544 2.2460 -4.1956
# 141 vertices

vn 0.9511 0.0000 -0.3090
vn 0.5907 -0.7837 -0.1919
vn 0.5907 -0.7837 0.1919
vn 0.9511 0.0000 0.3090
vn 0.5878 0.0000 -0.8090
vn 0.3651 -0.7837 -0.5025
vn 0.0000 0.0000 -1.0000
vn 0.0000 -0.7837 -0.6211
vn -0.5878 0.0000 -0.8090
vn -0.3650 -0.7838 -0.5024
vn -0.9511 0.0000 -0.3090
vn -0.5907 -0.7837 -0.1919
vn -0.9511 0.0000 0.3090
vn -0.5907 -0.7837 0.1919
vn -0.5878 0.0000 0.8090
vn -0.3651 -0.7837 0.5025
vn 0.0000 0.0000 1.0000
vn 0.0000 -0.7837 0.6211
vn 0.5878 0.0000 0.8090
vn 0.3651 -0.7837 0.5025
vn 0.7278 -0.6437 -0.2365
vn 0.7278 0.6437 -0.2365
vn 0.7278 0.6437 0.2365
vn 0.7278 -0.6437 0.2365
vn 0.4498 -0.6437 -0.6191
vn 0.4498 0.6437 -0.6191
vn -0.0000 -0.6437 -0.7653
vn -0.0000 0.6437 -0.7653
vn -0.4498 -0.6437 -0.6191
vn -0.4498 0.6437 -0.6191
vn -0.7278 -0.6437 -0.2365
vn -0.7278 0.6437 -0.2365
vn -0.7278 -0.6437 0.2365
vn -0.7278 0.6437 0.2365
vn -0.4498 -0.6437 0.6191
vn -0.4498 0.6437 0.6191
vn 0.0000 -0.6437 0.7653
vn 0.0000 0.6437 0.7653
vn 0.4498 -0.6437 0.6191
vn 0.4498 0.6437 0.6191
vn 0.5804 0.7922 -0.1886
vn 0.9371 0.1708 -0.3045
vn 0.9371 0.1708 0.3045
vn 0.5804 0.7922 0.1886
vn 0.3587 0.7922 -0.4938
vn 0.5791 0.1708 -0.7971
vn 0.0000 0.7922 -0.6103
vn -0.0000 0.1708 -0.9853
vn -0.3587 0.7922 -0.4937
vn -0.5791 0.1708 -0.7971
vn -0.5804 0.7922 -0.1886
vn -0.9371 0.1708 -0.3045
vn -0.5804 0.7922 0.1886
vn -0.9371 0.1708 0.3045
vn -0.3587 0.7922 0.4937
vn -0.5791 0.1708 0.7971
vn 0.0000 0.7922 0.6103
vn 0.0000 0.1708 0.9853
vn 0.3587 0.7922 0.4937
vn 0.5791 0.1708 0.7971
vn 0.9384 0.1626 -0.3049
vn 0.9227 -0.2422 -0.2998
vn 0.9227 -0.2422 0.2998
vn 0.9384 0.1626 0.3049
vn 0.5800 0.1626 -0.7982
vn 0.5703 -0.2423 -0.7849
vn -0.0000 0.1626 -0.9867
vn -0.0000 -0.2422 -0.9702
vn -0.5800 0.1626 -0.7982
vn -0.5703 -0.2423 -0.7849
vn -0.9384 0.1626 -0.3049
vn -0.9227 -0.2422 -0.2998
vn -0.9384 0.1626 0.3049
vn -0.9227 -0.2422 0.2998
vn -0.5800 0.1626 0.7982
vn -0.5703 -0.2423 0.7849
vn 0.0000 0.1626 0.9867
vn 0.0000 -0.2423 0.9702
vn 0.5800 0.1626 0.7982
vn 0.5703 -0.2423 0.7849
vn 0.6487 0.7312 -0.2108
vn -0.0000 1.0000 0.0000
vn 0.6487 0.7312 0.2108
vn 0.4009 0.7312 -0.5518
vn -0.0000 0.7312 -0.6821
vn -0.4009 0.7312 -0.5518
vn -0.6487 0.7312 -0.2108
vn -0.6487 0.7312 0.2108
vn -0.4009 0.7312 0.5518
vn 0.0000 0.7312 0.6821
vn 0.4009 0.7312 0.5518
vn 0.8532 0.4418 -0.2772
vn 0.8532 0.4418 0.2772
vn 0.5273 0.4418 -0.7258
vn -0.0000 0.4418 -0.8971
vn -0.5273 0.4418 -0.7258
vn -0.8532 0.4418 -0.2772
vn -0.8532 0.4418 0.2772
vn -0.5273 0.4418 0.7258
vn 0.0000 0.4418 0.8971
vn 0.5273 0.4418 0.7258
vn 0.9014 0.3188 -0.2929
vn 0.9014 0.3188 0.2929
vn 0.5571 0.3188 -0.7668
vn 0.0000 0.3188 -0.9478
vn -0.5571 0.3188 -0.7668
vn -0.9014 0.3188 -0.2929
vn -0.9014 0.3188 0.2929
vn -0.5571 0.3188 0.7668
vn 0.0000 0.3188 0.9478
vn 0.5571 0.3188 0.7668
vn 0.9491 -0.0647 -0.3084
vn 0.9491 -0.0647 0.3084
vn 0.9392 0.1572 -0.3052
vn 0.9392 0.1572 0.3052
vn 0.5866 -0.0647 -0.8073
vn 0.5805 0.1572 -0.7990
vn 0.0000 -0.0647 -0.9979
vn -0.0000 0.1572 -0.9876
vn -0.5866 -0.0647 -0.8073
vn -0.5805 0.1572 -0.7990
vn -0.9491 -0.0647 -0.3084
vn -0.9392 0.1572 -0.3052
vn -0.9491 -0.0647 0.3084
vn -0.9392 0.1572 0.3052
vn -0.5866 -0.0647 0.8073
vn -0.5805 0.1572 0.7990
vn 0.0000 -0.0647 0.9979
vn 0.0000 0.1572 0.9876
vn 0.5866 -0.0647 0.8073
vn 0.5805 0.1572 0.7990
vn 0.8829 0.3719 0.2869
vn 0.8829 0.3719 -0.2869
vn 0.5456 0.3719 -0.7510
vn -0.0000 0.3719 -0.9283
vn -0.5456 0.3719 -0.7510
vn -0.8829 0.3719 -0.2869
vn -0.8829 0.3719 0.2869
vn -0.5456 0.3719 0.7510
vn 0.0000 0.3719 0.9283
vn 0.5456 0.3719 0.7510
# 141 vertex normals

vt 0.0100 0.1372 0.0000
vt 0.9900 0.1372 0.0000
vt 0.9900 0.1675 0.0000
vt 0.0100 0.1675 0.0000
vt 0.0100 0.1127 0.0000
vt 0.9900 0.1127 0.0000
vt 0.0100 0.3540 0.0000
vt 0.0100 0.3252 0.0000
vt 0.9900 0.3252 0.0000
vt 0.9900 0.3540 0.0000
vt 0.0100 0.2964 0.0000
vt 0.9900 0.2964 0.0000
vt 0.0100 0.0893 0.0000
vt 0.0100 0.0648 0.0000
vt 0.9900 0.0648 0.0000
vt 0.9900 0.0893 0.0000
vt 0.0100 0.0345 0.0000
vt 0.9900 0.0345 0.0000
vt 0.0100 0.0100 0.0000
vt 0.9900 0.0100 0.0000
vt 0.0100 0.2730 0.0000
vt 0.0100 0.2442 0.0000
vt 0.9900 0.2442 0.0000
vt 0.9900 0.2730 0.0000
vt 0.0100 0.2154 0.0000
vt 0.9900 0.2154 0.0000
vt 0.0100 0.1920 0.0000
vt 0.9900 0.1920 0.0000
vt 0.1650 0.6289 0.0000
vt 0.1650 0.6119 0.0000
vt 0.1976 0.6119 0.0000
vt 0.1976 0.6289 0.0000
vt 0.1387 0.6289 0.0000
vt 0.1387 0.6119 0.0000
vt 0.3955 0.4971 0.0000
vt 0.3646 0.4971 0.0000
vt 0.3646 0.4800 0.0000
vt 0.3955 0.4800 0.0000
vt 0.3336 0.4971 0.0000
vt 0.3336 0.4800 0.0000
vt 0.6536 0.3944 0.0000
vt 0.6273 0.3944 0.0000
vt 0.6273 0.3774 0.0000
vt 0.6536 0.3774 0.0000
vt 0.5947 0.3944 0.0000
vt 0.5947 0.3774 0.0000
vt 0.1102 0.7442 0.0000
vt 0.0910 0.7442 0.0000
vt 0.0910 0.7272 0.0000
vt 0.1102 0.7272 0.0000
vt 0.0601 0.7442 0.0000
vt 0.0601 0.7272 0.0000
vt 0.0291 0.7442 0.0000
vt 0.0291 0.7272 0.0000
vt 0.0100 0.7442 0.0000
vt 0.0100 0.7272 0.0000
vt 0.0100 0.4019 0.0000
vt 0.0749 0.4024 0.0000
vt 0.0749 0.4316 0.0000
vt 0.0100 0.4322 0.0000
vt 0.0105 0.3774 0.0000
vt 0.0754 0.3789 0.0000
vt 0.1387 0.5348 0.0000
vt 0.1387 0.5045 0.0000
vt 0.2036 0.5051 0.0000
vt 0.2036 0.5343 0.0000
vt 0.1392 0.4800 0.0000
vt 0.2041 0.4815 0.0000
vt 0.2049 0.4322 0.0000
vt 0.2049 0.4019 0.0000
vt 0.2698 0.4024 0.0000
vt 0.2698 0.4316 0.0000
vt 0.2054 0.3774 0.0000
vt 0.2703 0.3789 0.0000
vt 0.3998 0.4322 0.0000
vt 0.3998 0.4019 0.0000
vt 0.4647 0.4024 0.0000
vt 0.4647 0.4316 0.0000
vt 0.4003 0.3774 0.0000
vt 0.4652 0.3789 0.0000
vt 0.1387 0.5885 0.0000
vt 0.1387 0.5582 0.0000
vt 0.2036 0.5588 0.0000
vt 0.2036 0.5879 0.0000
vt 0.0105 0.4567 0.0000
vt 0.0754 0.4552 0.0000
vt 0.1300 0.4106 0.0000
vt 0.1317 0.4104 0.0000
vt 0.1317 0.4236 0.0000
vt 0.1300 0.4235 0.0000
vt 0.1302 0.4001 0.0000
vt 0.1319 0.3997 0.0000
vt 0.2587 0.5261 0.0000
vt 0.2587 0.5132 0.0000
vt 0.2604 0.5131 0.0000
vt 0.2604 0.5263 0.0000
vt 0.2589 0.5028 0.0000
vt 0.2606 0.5023 0.0000
vt 0.3249 0.4235 0.0000
vt 0.3249 0.4106 0.0000
vt 0.3266 0.4104 0.0000
vt 0.3266 0.4236 0.0000
vt 0.3251 0.4001 0.0000
vt 0.3268 0.3997 0.0000
vt 0.5198 0.4235 0.0000
vt 0.5198 0.4106 0.0000
vt 0.5215 0.4104 0.0000
vt 0.5215 0.4236 0.0000
vt 0.5200 0.4001 0.0000
vt 0.5217 0.3997 0.0000
vt 0.2587 0.5798 0.0000
vt 0.2587 0.5669 0.0000
vt 0.2604 0.5667 0.0000
vt 0.2604 0.5800 0.0000
vt 0.1302 0.4339 0.0000
vt 0.1319 0.4344 0.0000
vt 0.0606 0.6726 0.0000
vt 0.0528 0.6618 0.0000
vt 0.0655 0.6659 0.0000
vt 0.0528 0.6752 0.0000
vt 0.0449 0.6726 0.0000
vt 0.0400 0.6659 0.0000
vt 0.0400 0.6576 0.0000
vt 0.0449 0.6509 0.0000
vt 0.0528 0.6484 0.0000
vt 0.0606 0.6509 0.0000
vt 0.0655 0.6576 0.0000
vt 0.1080 0.4059 0.0000
vt 0.1080 0.4282 0.0000
vt 0.1084 0.3878 0.0000
vt 0.2368 0.5085 0.0000
vt 0.2368 0.5309 0.0000
vt 0.2371 0.4905 0.0000
vt 0.3029 0.4059 0.0000
vt 0.3029 0.4282 0.0000
vt 0.3033 0.3878 0.0000
vt 0.4978 0.4059 0.0000
vt 0.4978 0.4282 0.0000
vt 0.4982 0.3878 0.0000
vt 0.2368 0.5622 0.0000
vt 0.2368 0.5845 0.0000
vt 0.1084 0.4462 0.0000
vt 0.0915 0.4041 0.0000
vt 0.0915 0.4299 0.0000
vt 0.0919 0.3833 0.0000
vt 0.2202 0.5068 0.0000
vt 0.2202 0.5326 0.0000
vt 0.2206 0.4860 0.0000
vt 0.2864 0.4041 0.0000
vt 0.2864 0.4299 0.0000
vt 0.2868 0.3833 0.0000
vt 0.4813 0.4041 0.0000
vt 0.4813 0.4299 0.0000
vt 0.4817 0.3833 0.0000
vt 0.2202 0.5605 0.0000
vt 0.2202 0.5862 0.0000
vt 0.0919 0.4507 0.0000
vt 0.1447 0.4097 0.0000
vt 0.1447 0.4244 0.0000
vt 0.1573 0.4098 0.0000
vt 0.1573 0.4242 0.0000
vt 0.1450 0.3978 0.0000
vt 0.1576 0.3982 0.0000
vt 0.2734 0.5123 0.0000
vt 0.2734 0.5270 0.0000
vt 0.2861 0.5125 0.0000
vt 0.2861 0.5269 0.0000
vt 0.2737 0.5004 0.0000
vt 0.2863 0.5009 0.0000
vt 0.3396 0.4097 0.0000
vt 0.3396 0.4244 0.0000
vt 0.3522 0.4098 0.0000
vt 0.3522 0.4242 0.0000
vt 0.3399 0.3978 0.0000
vt 0.3525 0.3982 0.0000
vt 0.5345 0.4097 0.0000
vt 0.5345 0.4244 0.0000
vt 0.5471 0.4098 0.0000
vt 0.5471 0.4242 0.0000
vt 0.5348 0.3978 0.0000
vt 0.5474 0.3982 0.0000
vt 0.2734 0.5660 0.0000
vt 0.2734 0.5807 0.0000
vt 0.2861 0.5662 0.0000
vt 0.2861 0.5805 0.0000
vt 0.1450 0.4363 0.0000
vt 0.1576 0.4358 0.0000
vt 0.1814 0.4129 0.0000
vt 0.1814 0.4211 0.0000
vt 0.1696 0.4231 0.0000
vt 0.1696 0.4109 0.0000
vt 0.1698 0.4010 0.0000
vt 0.1815 0.4062 0.0000
vt 0.3101 0.5238 0.0000
vt 0.2983 0.5258 0.0000
vt 0.2983 0.5136 0.0000
vt 0.3101 0.5156 0.0000
vt 0.2985 0.5037 0.0000
vt 0.3102 0.5089 0.0000
vt 0.3763 0.4211 0.0000
vt 0.3645 0.4231 0.0000
vt 0.3645 0.4109 0.0000
vt 0.3763 0.4129 0.0000
vt 0.3647 0.4010 0.0000
vt 0.3764 0.4062 0.0000
vt 0.5712 0.4211 0.0000
vt 0.5594 0.4231 0.0000
vt 0.5594 0.4109 0.0000
vt 0.5712 0.4129 0.0000
vt 0.5596 0.4010 0.0000
vt 0.5713 0.4062 0.0000
vt 0.3101 0.5775 0.0000
vt 0.2983 0.5795 0.0000
vt 0.2983 0.5673 0.0000
vt 0.3101 0.5692 0.0000
vt 0.1815 0.4278 0.0000
vt 0.1698 0.4330 0.0000
vt 0.0778 0.6071 0.0000
vt 0.0475 0.6071 0.0000
vt 0.0464 0.6036 0.0000
vt 0.0789 0.6036 0.0000
vt 0.0230 0.6249 0.0000
vt 0.0201 0.6227 0.0000
vt 0.0137 0.6537 0.0000
vt 0.0100 0.6537 0.0000
vt 0.0230 0.6825 0.0000
vt 0.0201 0.6846 0.0000
vt 0.0475 0.7003 0.0000
vt 0.0464 0.7038 0.0000
vt 0.0778 0.7003 0.0000
vt 0.0789 0.7038 0.0000
vt 0.1023 0.6825 0.0000
vt 0.1053 0.6846 0.0000
vt 0.1117 0.6537 0.0000
vt 0.1153 0.6537 0.0000
vt 0.1023 0.6249 0.0000
vt 0.1053 0.6227 0.0000
vt 0.1023 0.5013 0.0000
vt 0.0778 0.4835 0.0000
vt 0.0789 0.4800 0.0000
vt 0.1053 0.4992 0.0000
vt 0.0475 0.4835 0.0000
vt 0.0464 0.4800 0.0000
vt 0.0230 0.5013 0.0000
vt 0.0201 0.4992 0.0000
vt 0.0137 0.5301 0.0000
vt 0.0100 0.5301 0.0000
vt 0.0230 0.5589 0.0000
vt 0.0201 0.5611 0.0000
vt 0.0475 0.5767 0.0000
vt 0.0464 0.5802 0.0000
vt 0.0778 0.5767 0.0000
vt 0.0789 0.5802 0.0000
vt 0.1023 0.5589 0.0000
vt 0.1053 0.5611 0.0000
vt 0.1117 0.5301 0.0000
vt 0.1153 0.5301 0.0000
# 257 texture coords

o piller_low
g piller_low
usemtl wire_135059008
s 2
f 1/1/1 2/2/2 3/3/3 4/4/4 
f 1/1/1 5/5/5 6/6/6 2/2/2 
f 5/7/5 7/8/7 8/9/8 6/10/6 
f 7/8/7 9/11/9 10/12/10 8/9/8 
f 9/13/9 11/14/11 12/15/12 10/16/10 
f 11/14/11 13/17/13 14/18/14 12/15/12 
f 13/17/13 15/19/15 16/20/16 14/18/14 
f 15/21/15 17/22/17 18/23/18 16/24/16 
f 17/22/17 19/25/19 20/26/20 18/23/18 
f 19/27/19 4/4/4 3/3/3 20/28/20 
f 21/29/21 22/30/22 23/31/23 24/32/24 
f 21/29/21 25/33/25 26/34/26 22/30/22 
f 25/35/25 27/36/27 28/37/28 26/38/26 
f 27/36/27 29/39/29 30/40/30 28/37/28 
f 29/41/29 31/42/31 32/43/32 30/44/30 
f 31/42/31 33/45/33 34/46/34 32/43/32 
f 33/47/33 35/48/35 36/49/36 34/50/34 
f 35/48/35 37/51/37 38/52/38 36/49/36 
f 37/51/37 39/53/39 40/54/40 38/52/38 
f 39/53/39 24/55/24 23/56/23 40/54/40 
f 41/57/41 42/58/42 43/59/43 44/60/44 
f 41/57/41 45/61/45 46/62/46 42/58/42 
f 45/63/45 47/64/47 48/65/48 46/66/46 
f 47/64/47 49/67/49 50/68/50 48/65/48 
f 49/69/49 51/70/51 52/71/52 50/72/50 
f 51/70/51 53/73/53 54/74/54 52/71/52 
f 53/75/53 55/76/55 56/77/56 54/78/54 
f 55/76/55 57/79/57 58/80/58 56/77/56 
f 57/81/57 59/82/59 60/83/60 58/84/58 
f 59/85/59 44/60/44 43/59/43 60/86/60 
s 1
f 61/87/61 62/88/62 63/89/63 64/90/64 
f 61/87/61 65/91/65 66/92/66 62/88/62 
f 65/93/65 67/94/67 68/95/68 66/96/66 
f 67/94/67 69/97/69 70/98/70 68/95/68 
f 69/99/69 71/100/71 72/101/72 70/102/70 
f 71/100/71 73/103/73 74/104/74 72/101/72 
f 73/105/73 75/106/75 76/107/76 74/108/74 
f 75/106/75 77/109/77 78/110/78 76/107/76 
f 77/111/77 79/112/79 80/113/80 78/114/78 
f 79/115/79 64/90/64 63/89/63 80/116/80 
f 81/117/81 82/118/82 83/119/83 
f 81/117/81 84/120/84 82/118/82 
f 84/120/84 85/121/85 82/118/82 
f 85/121/85 86/122/86 82/118/82 
f 86/122/86 87/123/87 82/118/82 
f 87/123/87 88/124/88 82/118/82 
f 88/124/88 89/125/89 82/118/82 
f 89/125/89 90/126/90 82/118/82 
f 90/126/90 91/127/91 82/118/82 
f 91/127/91 83/119/83 82/118/82 
s 2
f 92/128/92 61/87/61 64/90/64 93/129/93 
f 94/130/94 65/91/65 61/87/61 92/128/92 
f 95/131/95 67/94/67 65/93/65 94/132/94 
f 96/133/96 69/97/69 67/94/67 95/131/95 
f 97/134/97 71/100/71 69/99/69 96/135/96 
f 98/136/98 73/103/73 71/100/71 97/134/97 
f 99/137/99 75/106/75 73/105/73 98/138/98 
f 100/139/100 77/109/77 75/106/75 99/137/99 
f 101/140/101 79/112/79 77/111/77 100/141/100 
f 93/129/93 64/90/64 79/115/79 101/142/101 
f 42/58/42 102/143/102 103/144/103 43/59/43 
f 42/58/42 46/62/46 104/145/104 102/143/102 
f 46/66/46 48/65/48 105/146/105 104/147/104 
f 48/65/48 50/68/50 106/148/106 105/146/105 
f 50/72/50 52/71/52 107/149/107 106/150/106 
f 52/71/52 54/74/54 108/151/108 107/149/107 
f 54/78/54 56/77/56 109/152/109 108/153/108 
f 56/77/56 58/80/58 110/154/110 109/152/109 
f 58/84/58 60/83/60 111/155/111 110/156/110 
f 60/86/60 43/59/43 103/144/103 111/157/111 
f 92/128/92 93/129/93 103/144/103 102/143/102 
f 92/128/92 102/143/102 104/145/104 94/130/94 
f 94/132/94 104/147/104 105/146/105 95/131/95 
f 95/131/95 105/146/105 106/148/106 96/133/96 
f 96/135/96 106/150/106 107/149/107 97/134/97 
f 97/134/97 107/149/107 108/151/108 98/136/98 
f 98/138/98 108/153/108 109/152/109 99/137/99 
f 99/137/99 109/152/109 110/154/110 100/139/100 
f 100/141/100 110/156/110 111/155/111 101/140/101 
f 101/142/101 111/157/111 103/144/103 93/129/93 
s 1
f 62/88/62 112/158/112 113/159/113 63/89/63 
f 112/158/112 114/160/114 115/161/115 113/159/113 
f 62/88/62 66/92/66 116/162/116 112/158/112 
f 112/158/112 116/162/116 117/163/117 114/160/114 
f 66/96/66 68/95/68 118/164/118 116/165/116 
f 116/165/116 118/164/118 119/166/119 117/167/117 
f 68/95/68 70/98/70 120/168/120 118/164/118 
f 118/164/118 120/168/120 121/169/121 119/166/119 
f 70/102/70 72/101/72 122/170/122 120/171/120 
f 120/171/120 122/170/122 123/172/123 121/173/121 
f 72/101/72 74/104/74 124/174/124 122/170/122 
f 122/170/122 124/174/124 125/175/125 123/172/123 
f 74/108/74 76/107/76 126/176/126 124/177/124 
f 124/177/124 126/176/126 127/178/127 125/179/125 
f 76/107/76 78/110/78 128/180/128 126/176/126 
f 126/176/126 128/180/128 129/181/129 127/178/127 
f 78/114/78 80/113/80 130/182/130 128/183/128 
f 128/183/128 130/182/130 131/184/131 129/185/129 
f 80/116/80 63/89/63 113/159/113 130/186/130 
f 130/186/130 113/159/113 115/161/115 131/187/131 
f 81/188/81 83/189/83 132/190/132 133/191/133 
f 133/191/133 132/190/132 115/161/115 114/160/114 
f 81/188/81 133/191/133 134/192/134 84/193/84 
f 133/191/133 114/160/114 117/163/117 134/192/134 
f 84/194/84 134/195/134 135/196/135 85/197/85 
f 134/195/134 117/167/117 119/166/119 135/196/135 
f 85/197/85 135/196/135 136/198/136 86/199/86 
f 135/196/135 119/166/119 121/169/121 136/198/136 
f 86/200/86 136/201/136 137/202/137 87/203/87 
f 136/201/136 121/173/121 123/172/123 137/202/137 
f 87/203/87 137/202/137 138/204/138 88/205/88 
f 137/202/137 123/172/123 125/175/125 138/204/138 
f 88/206/88 138/207/138 139/208/139 89/209/89 
f 138/207/138 125/179/125 127/178/127 139/208/139 
f 89/209/89 139/208/139 140/210/140 90/211/90 
f 139/208/139 127/178/127 129/181/129 140/210/140 
f 90/212/90 140/213/140 141/214/141 91/215/91 
f 140/213/140 129/185/129 131/184/131 141/214/141 
f 91/216/91 141/217/141 132/190/132 83/189/83 
f 141/217/141 131/187/131 115/161/115 132/190/132 
s off
f 2/218/2 6/219/6 25/220/25 21/221/21 
f 6/219/6 8/222/8 27/223/27 25/220/25 
f 8/222/8 10/224/10 29/225/29 27/223/27 
f 10/224/10 12/226/12 31/227/31 29/225/29 
f 12/226/12 14/228/14 33/229/33 31/227/31 
f 14/228/14 16/230/16 35/231/35 33/229/33 
f 16/230/16 18/232/18 37/233/37 35/231/35 
f 18/232/18 20/234/20 39/235/39 37/233/37 
f 20/234/20 3/236/3 24/237/24 39/235/39 
f 3/236/3 2/218/2 21/221/21 24/237/24 
f 41/238/41 44/239/44 23/240/23 22/241/22 
f 44/239/44 59/242/59 40/243/40 23/240/23 
f 59/242/59 57/244/57 38/245/38 40/243/40 
f 57/244/57 55/246/55 36/247/36 38/245/38 
f 55/246/55 53/248/53 34/249/34 36/247/36 
f 53/248/53 51/250/51 32/251/32 34/249/34 
f 51/250/51 49/252/49 30/253/30 32/251/32 
f 49/252/49 47/254/47 28/255/28 30/253/30 
f 47/254/47 45/256/45 26/257/26 28/255/28 
f 45/256/45 41/238/41 22/241/22 26/257/26 
# 130 polygons - 10 triangles

