# 3ds Max Wavefront OBJ Exporter v0.97b - (c)2007 guruware
# File Created: 23.04.2020 21:11:38

mtllib tablette_low.mtl

#
# object tablette
#

v  -0.4772 0.0141 3.7459
v  -0.5770 0.3861 3.4855
v  -0.1031 0.2960 3.4855
v  -0.1031 0.0141 3.6261
v  -0.4772 0.0057 4.0118
v  -0.1031 0.0144 4.0479
v  -0.1031 0.5868 3.6307
v  -0.4053 0.5298 3.6307
v  0.2711 0.0141 3.7459
v  0.2711 0.3861 3.4855
v  0.1146 0.5120 3.5990
v  0.2711 0.0095 3.8912
v  0.2711 0.7580 3.2250
v  -0.1031 0.6729 3.2250
v  -0.1031 1.0769 3.2704
v  0.3382 1.0269 3.2704
v  -0.4772 0.7321 3.1110
v  -0.5924 1.0269 3.2704
v  0.9288 1.4209 3.0900
v  0.8320 1.8787 3.1707
v  0.9243 1.9125 3.2489
v  1.0270 1.4085 3.1600
v  0.7003 2.2814 3.2417
v  0.7756 2.3557 3.3271
v  0.4406 2.5803 3.2944
v  0.4897 2.6847 3.3851
v  0.1220 2.6109 3.2998
v  0.1390 2.7210 3.3915
v  -0.2171 2.6375 3.3045
v  -0.2342 2.7476 3.3962
v  -0.5358 2.5803 3.2944
v  -0.5850 2.6847 3.3851
v  -0.7810 2.3471 3.2533
v  -0.8563 2.4214 3.3386
v  -0.9651 1.8787 3.1707
v  -1.0575 1.9125 3.2489
v  -0.9991 1.3117 3.0707
v  -1.1316 1.2993 3.1408
v  -1.0227 0.9630 3.0092
v  -1.1151 0.9045 3.0712
v  -0.8633 0.5603 2.9382
v  -0.9386 0.4614 2.9930
v  -0.5809 0.2155 2.8774
v  -0.6301 0.0864 2.9269
v  -0.2171 0.2035 2.8753
v  -0.2342 0.0687 2.9238
v  0.1220 0.2035 2.8753
v  0.1390 0.0687 2.9238
v  0.5319 0.2614 2.8855
v  0.5810 0.1323 2.9350
v  0.7003 0.5927 2.9439
v  0.7756 0.4937 2.9987
v  0.8699 0.9630 3.0092
v  0.9622 0.9045 3.0712
v  0.9243 1.9002 3.3191
v  1.0270 1.3961 3.2302
v  0.7756 2.3433 3.3972
v  0.4897 2.6723 3.4552
v  0.1390 2.7087 3.4616
v  -0.2342 2.7352 3.4663
v  -0.5850 2.6723 3.4552
v  -0.8563 2.4090 3.4088
v  -1.0575 1.9002 3.3191
v  -1.1316 1.2869 3.2109
v  -1.1151 0.8922 3.1413
v  -0.9386 0.4490 3.0632
v  -0.6301 0.0741 2.9971
v  -0.2342 0.0563 2.9939
v  0.1390 0.0563 2.9939
v  0.5810 0.1200 3.0052
v  0.7756 0.4813 3.0689
v  0.9622 0.8922 3.1413
v  0.9243 1.8878 3.3892
v  1.0270 1.3838 3.3003
v  0.7756 2.3310 3.4673
v  0.4897 2.6599 3.5253
v  0.1390 2.6963 3.5317
v  -0.2342 2.7229 3.5364
v  -0.5850 2.6599 3.5253
v  -0.8563 2.3966 3.4789
v  -1.0575 1.8878 3.3892
v  -1.1316 1.2746 3.2810
v  -1.1151 0.8798 3.2114
v  -0.9386 0.4366 3.1333
v  -0.6301 0.0617 3.0672
v  -0.2342 0.0439 3.0640
v  0.1390 0.0439 3.0640
v  0.5810 0.1076 3.0753
v  0.7756 0.4690 3.1390
v  0.9622 0.8798 3.2114
v  0.9243 1.8754 3.4592
v  1.0270 1.3714 3.3704
v  0.7756 2.3186 3.5374
v  0.4897 2.6476 3.5954
v  0.1390 2.6840 3.6018
v  -0.2342 2.7105 3.6065
v  -0.5850 2.6476 3.5954
v  -0.8563 2.3843 3.5490
v  -1.0575 1.8754 3.4592
v  -1.1316 1.2622 3.3511
v  -1.1151 0.8675 3.2815
v  -0.9386 0.4243 3.2034
v  -0.6301 0.0494 3.1373
v  -0.2342 0.0316 3.1341
v  0.1390 0.0316 3.1341
v  0.5810 0.0953 3.1453
v  0.7756 0.4566 3.2091
v  0.9622 0.8675 3.2815
v  0.7937 1.8323 3.5308
v  0.9408 1.4250 3.4521
v  0.6494 2.2494 3.6043
v  0.4996 2.5602 3.6522
v  0.0831 2.5467 3.6499
v  -0.2232 2.5206 3.6453
v  -0.5533 2.5602 3.6522
v  -0.8079 2.3117 3.6351
v  -0.9426 1.8292 3.5480
v  -1.0343 1.3072 3.4313
v  -1.0001 0.7985 3.3625
v  -0.7545 0.4636 3.3056
v  -0.4800 0.2144 3.2849
v  -0.2232 0.2109 3.2757
v  0.1280 0.1769 3.2320
v  0.4496 0.1579 3.2287
v  0.6465 0.4960 3.3113
v  0.8445 0.8808 3.3791
# 126 vertices

vn -0.1736 -0.5341 -0.8274
vn -0.0858 -0.6068 -0.7902
vn 0.0334 -0.5704 -0.8207
vn 0.0112 -0.5326 -0.8463
vn -0.1002 0.5899 0.8012
vn 0.0986 0.5862 0.8041
vn 0.0672 0.5725 0.8172
vn -0.0895 0.5842 0.8066
vn 0.0104 -0.9999 -0.0118
vn 0.0017 -1.0000 -0.0097
vn 0.0027 -0.9999 -0.0099
vn 0.8611 0.3727 0.3459
vn 0.8966 0.2279 0.3796
vn 0.9027 0.1881 0.3871
vn -0.0058 0.1344 -0.9909
vn 0.0640 0.2208 -0.9732
vn 0.0618 0.2180 -0.9740
vn -0.9889 0.0255 0.1467
vn -0.9643 0.1162 0.2378
vn -0.9664 0.1106 0.2322
vn -0.0148 -0.6587 -0.7523
vn 0.0569 -0.6163 -0.7854
vn 0.2395 0.5491 0.8007
vn 0.1418 0.5380 0.8309
vn 0.0317 0.5616 0.8268
vn 0.9116 0.0417 0.4089
vn -0.9257 0.2006 0.3206
vn 0.1603 -0.5431 -0.8242
vn 0.1956 -0.5128 -0.8359
vn 0.3195 0.5539 0.7688
vn -0.0069 -0.9999 -0.0076
vn 0.1281 0.2984 -0.9458
vn 0.1325 -0.5660 -0.8137
vn -0.0781 0.5781 0.8122
vn 0.3169 0.7880 -0.5278
vn 0.2739 0.8412 -0.4662
vn 0.8283 0.5599 -0.0208
vn 0.8901 0.3959 -0.2257
vn 0.2544 0.8854 -0.3890
vn 0.7074 0.6826 0.1832
vn 0.1475 0.9365 -0.3182
vn 0.4246 0.8223 0.3789
vn 0.0523 0.9505 -0.3063
vn 0.1547 0.8812 0.4466
vn -0.0436 0.9560 -0.2902
vn -0.1306 0.8786 0.4594
vn -0.1377 0.9349 -0.3271
vn -0.4117 0.8299 0.3765
vn -0.2363 0.8988 -0.3691
vn -0.6672 0.7103 0.2241
vn -0.3019 0.8275 -0.4734
vn -0.8396 0.5425 -0.0277
vn -0.2186 0.8101 -0.5440
vn -0.8541 0.4502 -0.2604
vn -0.3263 0.7403 -0.5878
vn -0.8561 0.2301 -0.4628
vn -0.2423 0.6697 -0.7020
vn -0.6943 0.0587 -0.7173
vn -0.1446 0.6112 -0.7781
vn -0.4127 -0.0840 -0.9070
vn -0.0321 0.6111 -0.7909
vn -0.1041 -0.1226 -0.9870
vn 0.0407 0.6085 -0.7925
vn 0.1248 -0.1238 -0.9844
vn 0.2015 0.6168 -0.7609
vn 0.5094 -0.0605 -0.8584
vn 0.2386 0.6947 -0.6786
vn 0.7279 0.1047 -0.6777
vn 0.2905 0.7138 -0.6373
vn 0.8305 0.1925 -0.5226
vn 0.9387 0.1977 0.2823
vn 0.9988 0.0281 0.0401
vn 0.7949 0.3480 0.4970
vn 0.4765 0.5043 0.7202
vn 0.1748 0.5647 0.8065
vn -0.1459 0.5674 0.8104
vn -0.4639 0.5081 0.7257
vn -0.7479 0.3807 0.5438
vn -0.9459 0.1861 0.2658
vn -0.9986 0.0306 0.0437
vn -0.9614 -0.1578 -0.2254
vn -0.7821 -0.3574 -0.5104
vn -0.4612 -0.5089 -0.7268
vn -0.1165 -0.5697 -0.8136
vn 0.1401 -0.5679 -0.8111
vn 0.5711 -0.4708 -0.6724
vn 0.8273 -0.3222 -0.4602
vn 0.9338 -0.2052 -0.2930
vn 0.5712 -0.4708 -0.6724
vn 0.8110 -0.2441 0.5317
vn 0.9022 -0.3374 0.2688
vn 0.7021 -0.0943 0.7058
vn 0.4373 0.2451 0.8653
vn 0.1588 0.0987 0.9824
vn -0.1235 0.0654 0.9902
vn -0.4312 0.1659 0.8869
vn -0.7143 0.1182 0.6898
vn -0.8525 -0.1913 0.4865
vn -0.8857 -0.3562 0.2979
vn -0.8792 -0.4739 0.0492
vn -0.6797 -0.7196 -0.1421
vn -0.4137 -0.8374 -0.3572
vn -0.1018 -0.8904 -0.4437
vn 0.1200 -0.9039 -0.4106
vn 0.5164 -0.8014 -0.3018
vn 0.7286 -0.6723 -0.1306
vn 0.8404 -0.5420 -0.0070
vn 0.2253 -0.7377 0.6364
vn 0.4073 -0.6760 0.6141
vn 0.2212 -0.7115 0.6669
vn 0.3877 -0.3897 0.8353
vn 0.0030 -0.6129 0.7901
vn -0.0206 -0.6795 0.7334
vn -0.1337 -0.4513 0.8823
vn -0.3905 -0.5157 0.7626
vn -0.3031 -0.7418 0.5982
vn -0.3213 -0.7579 0.5678
vn -0.3940 -0.8684 0.3012
vn -0.1741 -0.8982 0.4036
vn -0.0841 -0.9030 0.4212
vn 0.0321 -0.8889 0.4569
vn 0.0596 -0.9767 0.2063
vn 0.1284 -0.9661 0.2238
vn 0.2224 -0.8962 0.3838
vn 0.3051 -0.8441 0.4410
# 125 vertex normals

vt 0.5130 0.5148 0.0000
vt 0.5803 0.4968 0.0000
vt 0.5640 0.5825 0.0000
vt 0.5130 0.5825 0.0000
vt 0.5250 0.1574 0.0000
vt 0.5266 0.0898 0.0000
vt 0.6301 0.0898 0.0000
vt 0.6198 0.1444 0.0000
vt 0.6603 0.2629 0.0000
vt 0.5927 0.2846 0.0000
vt 0.5927 0.2083 0.0000
vt 0.6603 0.2149 0.0000
vt 0.0246 0.9550 0.0000
vt 0.1066 0.9507 0.0000
vt 0.1150 0.9802 0.0000
vt 0.0100 0.9768 0.0000
vt 0.6475 0.6501 0.0000
vt 0.6321 0.5825 0.0000
vt 0.7052 0.5825 0.0000
vt 0.6961 0.6622 0.0000
vt 0.9571 0.0684 0.0000
vt 0.8650 0.0663 0.0000
vt 0.8641 0.0294 0.0000
vt 0.9734 0.0100 0.0000
vt 0.6428 0.5148 0.0000
vt 0.6166 0.0504 0.0000
vt 0.7096 0.0100 0.0000
vt 0.7187 0.0898 0.0000
vt 0.1886 0.9464 0.0000
vt 0.2255 0.9791 0.0000
vt 0.7844 0.0820 0.0000
vt 0.7488 0.0497 0.0000
vt 0.5803 0.6501 0.0000
vt 0.5130 0.6501 0.0000
vt 0.5257 0.0221 0.0000
vt 0.5250 0.2629 0.0000
vt 0.5250 0.2367 0.0000
vt 0.6961 0.4940 0.0000
vt 0.7096 0.1782 0.0000
vt 0.2497 0.8146 0.0000
vt 0.3324 0.8292 0.0000
vt 0.3385 0.8434 0.0000
vt 0.2474 0.8273 0.0000
vt 0.4052 0.8421 0.0000
vt 0.4187 0.8575 0.0000
vt 0.4100 0.7063 0.0000
vt 0.4641 0.6593 0.0000
vt 0.4829 0.6682 0.0000
vt 0.4235 0.7199 0.0000
vt 0.5238 0.6923 0.0000
vt 0.5813 0.6953 0.0000
vt 0.5777 0.7118 0.0000
vt 0.5144 0.7084 0.0000
vt 0.6426 0.6983 0.0000
vt 0.6451 0.7150 0.0000
vt 0.7002 0.6985 0.0000
vt 0.7085 0.7152 0.0000
vt 0.7448 0.6926 0.0000
vt 0.7578 0.7085 0.0000
vt 0.9258 0.4639 0.0000
vt 0.8398 0.4639 0.0000
vt 0.8483 0.4510 0.0000
vt 0.9417 0.4510 0.0000
vt 0.7357 0.4639 0.0000
vt 0.7357 0.4510 0.0000
vt 0.6717 0.4639 0.0000
vt 0.6632 0.4510 0.0000
vt 0.5978 0.4639 0.0000
vt 0.5819 0.4510 0.0000
vt 0.0989 0.4236 0.0000
vt 0.0365 0.4747 0.0000
vt 0.0132 0.4658 0.0000
vt 0.0810 0.4100 0.0000
vt 0.0344 0.5404 0.0000
vt 0.0100 0.5373 0.0000
vt 0.0344 0.6017 0.0000
vt 0.0100 0.6048 0.0000
vt 0.0448 0.6758 0.0000
vt 0.0215 0.6847 0.0000
vt 0.0400 0.7777 0.0000
vt 0.0999 0.7882 0.0000
vt 0.0820 0.7982 0.0000
vt 0.0167 0.7866 0.0000
vt 0.1669 0.8001 0.0000
vt 0.1563 0.8113 0.0000
vt 0.3363 0.8561 0.0000
vt 0.2452 0.8400 0.0000
vt 0.4164 0.8702 0.0000
vt 0.4781 0.8680 0.0000
vt 0.4759 0.8807 0.0000
vt 0.5772 0.7244 0.0000
vt 0.5139 0.7211 0.0000
vt 0.6446 0.7276 0.0000
vt 0.7081 0.7278 0.0000
vt 0.9900 0.4510 0.0000
vt 0.9417 0.4382 0.0000
vt 0.9900 0.4382 0.0000
vt 0.8483 0.4382 0.0000
vt 0.7357 0.4382 0.0000
vt 0.6632 0.4382 0.0000
vt 0.5819 0.4382 0.0000
vt 0.5130 0.4510 0.0000
vt 0.5130 0.4382 0.0000
vt 0.9542 0.5587 0.0000
vt 0.8826 0.5593 0.0000
vt 0.8826 0.5466 0.0000
vt 0.9542 0.5460 0.0000
vt 0.8152 0.5593 0.0000
vt 0.8152 0.5466 0.0000
vt 0.7353 0.5572 0.0000
vt 0.7353 0.5446 0.0000
vt 0.0798 0.8108 0.0000
vt 0.0145 0.7993 0.0000
vt 0.1541 0.8239 0.0000
vt 0.3341 0.8687 0.0000
vt 0.2429 0.8527 0.0000
vt 0.4142 0.8829 0.0000
vt 0.4737 0.8934 0.0000
vt 0.5768 0.7371 0.0000
vt 0.5135 0.7337 0.0000
vt 0.6442 0.7403 0.0000
vt 0.7076 0.7405 0.0000
vt 0.9417 0.4253 0.0000
vt 0.9900 0.4253 0.0000
vt 0.8483 0.4253 0.0000
vt 0.7357 0.4253 0.0000
vt 0.6632 0.4253 0.0000
vt 0.5819 0.4253 0.0000
vt 0.5130 0.4253 0.0000
vt 0.8826 0.5339 0.0000
vt 0.9542 0.5334 0.0000
vt 0.8152 0.5339 0.0000
vt 0.7353 0.5319 0.0000
vt 0.0776 0.8235 0.0000
vt 0.0122 0.8120 0.0000
vt 0.1518 0.8366 0.0000
vt 0.3318 0.8814 0.0000
vt 0.2407 0.8653 0.0000
vt 0.4120 0.8955 0.0000
vt 0.4714 0.9060 0.0000
vt 0.5764 0.7498 0.0000
vt 0.5130 0.7464 0.0000
vt 0.6438 0.7530 0.0000
vt 0.7072 0.7532 0.0000
vt 0.9417 0.4124 0.0000
vt 0.9900 0.4124 0.0000
vt 0.8483 0.4124 0.0000
vt 0.7357 0.4124 0.0000
vt 0.6632 0.4124 0.0000
vt 0.5819 0.4124 0.0000
vt 0.5130 0.4124 0.0000
vt 0.8826 0.5213 0.0000
vt 0.9542 0.5207 0.0000
vt 0.8152 0.5213 0.0000
vt 0.7353 0.5192 0.0000
vt 0.0753 0.8362 0.0000
vt 0.0100 0.8247 0.0000
vt 0.1496 0.8493 0.0000
vt 0.3240 0.8944 0.0000
vt 0.2504 0.8801 0.0000
vt 0.3589 0.0186 0.0000
vt 0.4370 0.0510 0.0000
vt 0.4229 0.0729 0.0000
vt 0.3495 0.0417 0.0000
vt 0.4556 0.9163 0.0000
vt 0.3994 0.9076 0.0000
vt 0.4927 0.1068 0.0000
vt 0.4948 0.1705 0.0000
vt 0.4694 0.1788 0.0000
vt 0.4771 0.1039 0.0000
vt 0.4949 0.2381 0.0000
vt 0.4608 0.2337 0.0000
vt 0.4791 0.3006 0.0000
vt 0.4638 0.2938 0.0000
vt 0.9314 0.3948 0.0000
vt 0.9762 0.3996 0.0000
vt 0.8428 0.3952 0.0000
vt 0.7462 0.3996 0.0000
vt 0.6535 0.3958 0.0000
vt 0.5921 0.3955 0.0000
vt 0.0737 0.3363 0.0000
vt 0.0100 0.2759 0.0000
vt 0.0417 0.2510 0.0000
vt 0.0831 0.3036 0.0000
vt 0.0118 0.2043 0.0000
vt 0.0443 0.2046 0.0000
vt 0.0165 0.1370 0.0000
vt 0.0426 0.1408 0.0000
vt 0.0336 0.0581 0.0000
vt 0.0432 0.0826 0.0000
vt 0.1012 0.0276 0.0000
vt 0.1066 0.0513 0.0000
vt 0.1520 0.8669 0.0000
vt 0.0824 0.8547 0.0000
vt 0.9271 0.4940 0.0000
vt 0.8806 0.4957 0.0000
vt 0.8171 0.5036 0.0000
vt 0.7590 0.5042 0.0000
vt 0.1404 0.3521 0.0000
vt 0.1785 0.0205 0.0000
vt 0.2317 0.3647 0.0000
vt 0.2779 0.0100 0.0000
vt 0.3271 0.3548 0.0000
vt 0.4158 0.3366 0.0000
vt 0.8084 0.1117 0.0000
vt 0.7488 0.1046 0.0000
vt 0.9391 0.1046 0.0000
vt 0.8638 0.1070 0.0000
vt 0.4641 0.4828 0.0000
vt 0.4744 0.5404 0.0000
vt 0.4696 0.6017 0.0000
vt 0.4219 0.4385 0.0000
vt 0.3372 0.4052 0.0000
vt 0.3372 0.7301 0.0000
vt 0.2347 0.3991 0.0000
vt 0.2545 0.7476 0.0000
vt 0.1717 0.3948 0.0000
vt 0.1717 0.7369 0.0000
vt 0.1047 0.7063 0.0000
# 219 texture coords

o tablette
g tablette
usemtl wire_153228184
s 2
f 1/1/1 2/2/2 3/3/3 4/4/4 
s 4
f 5/5/5 6/6/6 7/7/7 8/8/8 
s 8
f 1/9/9 4/10/10 6/11/11 5/12/9 
s 16
f 9/13/12 10/14/13 11/15/14 12/16/12 
s 32
f 13/17/15 14/18/16 15/19/17 16/20/15 
s 64
f 17/21/18 2/22/19 8/23/20 18/24/18 
s 2
f 2/2/2 17/25/21 14/18/22 3/3/3 
s 4
f 11/26/23 16/27/24 15/28/25 7/7/7 
s 16
f 10/14/13 13/29/26 16/30/26 11/15/14 
s 64
f 2/22/19 1/31/27 5/32/27 8/23/20 
s 2
f 3/3/3 10/33/28 9/34/29 4/4/4 
s 4
f 6/6/6 12/35/30 11/26/23 7/7/7 
s 8
f 4/10/10 9/36/31 12/37/31 6/11/11 
s 32
f 14/18/16 17/25/32 18/38/32 15/19/17 
s 2
f 14/18/22 13/17/33 10/33/28 3/3/3 
s 4
f 15/28/25 18/39/34 8/8/8 7/7/7 
s 1
f 19/40/35 20/41/36 21/42/37 22/43/38 
f 20/41/36 23/44/39 24/45/40 21/42/37 
f 23/46/39 25/47/41 26/48/42 24/49/40 
f 25/50/41 27/51/43 28/52/44 26/53/42 
f 27/51/43 29/54/45 30/55/46 28/52/44 
f 29/54/45 31/56/47 32/57/48 30/55/46 
f 31/56/47 33/58/49 34/59/50 32/57/48 
f 33/60/49 35/61/51 36/62/52 34/63/50 
f 35/61/51 37/64/53 38/65/54 36/62/52 
f 37/64/53 39/66/55 40/67/56 38/65/54 
f 39/66/55 41/68/57 42/69/58 40/67/56 
f 41/70/57 43/71/59 44/72/60 42/73/58 
f 43/71/59 45/74/61 46/75/62 44/72/60 
f 45/74/61 47/76/63 48/77/64 46/75/62 
f 47/76/63 49/78/65 50/79/66 48/77/64 
f 49/80/65 51/81/67 52/82/68 50/83/66 
f 51/81/67 53/84/69 54/85/70 52/82/68 
f 53/84/69 19/40/35 22/43/38 54/85/70 
s 2
f 22/43/38 21/42/37 55/86/71 56/87/72 
f 21/42/37 24/45/40 57/88/73 55/86/71 
f 24/45/40 26/89/42 58/90/74 57/88/73 
f 26/53/42 28/52/44 59/91/75 58/92/74 
f 28/52/44 30/55/46 60/93/76 59/91/75 
f 30/55/46 32/57/48 61/94/77 60/93/76 
f 32/95/48 34/63/50 62/96/78 61/97/77 
f 34/63/50 36/62/52 63/98/79 62/96/78 
f 36/62/52 38/65/54 64/99/80 63/98/79 
f 38/65/54 40/67/56 65/100/81 64/99/80 
f 40/67/56 42/69/58 66/101/82 65/100/81 
f 42/69/58 44/102/60 67/103/83 66/101/82 
f 44/104/60 46/105/62 68/106/84 67/107/83 
f 46/105/62 48/108/64 69/109/85 68/106/84 
f 48/108/64 50/110/66 70/111/86 69/109/85 
f 50/83/66 52/82/68 71/112/87 70/113/86 
f 52/82/68 54/85/70 72/114/88 71/112/87 
f 54/85/70 22/43/38 56/87/72 72/114/88 
f 56/87/72 55/86/71 73/115/71 74/116/72 
f 55/86/71 57/88/73 75/117/73 73/115/71 
f 57/88/73 58/90/74 76/118/74 75/117/73 
f 58/92/74 59/91/75 77/119/75 76/120/74 
f 59/91/75 60/93/76 78/121/76 77/119/75 
f 60/93/76 61/94/77 79/122/77 78/121/76 
f 61/97/77 62/96/78 80/123/78 79/124/77 
f 62/96/78 63/98/79 81/125/79 80/123/78 
f 63/98/79 64/99/80 82/126/80 81/125/79 
f 64/99/80 65/100/81 83/127/81 82/126/80 
f 65/100/81 66/101/82 84/128/82 83/127/81 
f 66/101/82 67/103/83 85/129/83 84/128/82 
f 67/107/83 68/106/84 86/130/84 85/131/83 
f 68/106/84 69/109/85 87/132/85 86/130/84 
f 69/109/85 70/111/86 88/133/89 87/132/85 
f 70/113/86 71/112/87 89/134/87 88/135/89 
f 71/112/87 72/114/88 90/136/88 89/134/87 
f 72/114/88 56/87/72 74/116/72 90/136/88 
f 74/116/72 73/115/71 91/137/90 92/138/91 
f 73/115/71 75/117/73 93/139/92 91/137/90 
f 75/117/73 76/118/74 94/140/93 93/139/92 
f 76/120/74 77/119/75 95/141/94 94/142/93 
f 77/119/75 78/121/76 96/143/95 95/141/94 
f 78/121/76 79/122/77 97/144/96 96/143/95 
f 79/124/77 80/123/78 98/145/97 97/146/96 
f 80/123/78 81/125/79 99/147/98 98/145/97 
f 81/125/79 82/126/80 100/148/99 99/147/98 
f 82/126/80 83/127/81 101/149/100 100/148/99 
f 83/127/81 84/128/82 102/150/101 101/149/100 
f 84/128/82 85/129/83 103/151/102 102/150/101 
f 85/131/83 86/130/84 104/152/103 103/153/102 
f 86/130/84 87/132/85 105/154/104 104/152/103 
f 87/132/85 88/133/89 106/155/105 105/154/104 
f 88/135/89 89/134/87 107/156/106 106/157/105 
f 89/134/87 90/136/88 108/158/107 107/156/106 
f 90/136/88 74/116/72 92/138/91 108/158/107 
f 92/138/91 91/137/90 109/159/108 110/160/109 
f 91/161/90 93/162/92 111/163/110 109/164/108 
f 93/139/92 94/140/93 112/165/111 111/166/110 
f 94/167/93 95/168/94 113/169/112 112/170/111 
f 95/168/94 96/171/95 114/172/113 113/169/112 
f 96/171/95 97/173/96 115/174/114 114/172/113 
f 97/146/96 98/145/97 116/175/115 115/176/114 
f 98/145/97 99/147/98 117/177/116 116/175/115 
f 99/147/98 100/148/99 118/178/117 117/177/116 
f 100/148/99 101/149/100 119/179/118 118/178/117 
f 101/149/100 102/150/101 120/180/119 119/179/118 
f 102/181/101 103/182/102 121/183/120 120/184/119 
f 103/182/102 104/185/103 122/186/121 121/183/120 
f 104/185/103 105/187/104 123/188/122 122/186/121 
f 105/187/104 106/189/105 124/190/123 123/188/122 
f 106/189/105 107/191/106 125/192/124 124/190/123 
f 107/156/106 108/158/107 126/193/125 125/194/124 
f 108/158/107 92/138/91 110/160/109 126/193/125 
f 121/195/120 122/196/121 123/197/122 124/198/123 
f 120/184/119 121/183/120 124/190/123 125/192/124 
f 119/199/118 120/184/119 125/192/124 126/200/125 
f 118/201/117 119/199/118 126/200/125 110/202/109 
f 117/203/116 118/201/117 110/202/109 109/164/108 
f 116/204/115 117/203/116 109/164/108 111/163/110 
f 115/174/114 116/204/115 111/163/110 112/170/111 
f 114/205/113 115/206/114 112/207/111 113/208/112 
s 1
f 31/209/47 29/210/45 27/211/43 25/47/41 
f 33/212/49 31/209/47 25/47/41 23/46/39 
f 35/213/51 33/212/49 23/46/39 20/214/36 
f 37/215/53 35/213/51 20/214/36 19/216/35 
f 39/217/55 37/215/53 19/216/35 53/218/69 
f 41/70/57 39/217/55 53/218/69 51/219/67 
f 43/71/59 41/70/57 51/219/67 49/78/65 
f 45/74/61 43/71/59 49/78/65 47/76/63 
# 122 polygons

