# 3ds Max Wavefront OBJ Exporter v0.97b - (c)2007 guruware
# File Created: 23.04.2020 16:07:15

mtllib socle_low.mtl

#
# object Cylinder001
#

v  0.0303 -0.0073 -0.1128
v  0.0271 -0.0073 -0.1312
v  0.0544 0.0146 -0.1411
v  0.0594 0.0146 -0.1128
v  0.0178 -0.0073 -0.1473
v  0.0400 0.0146 -0.1660
v  0.0035 -0.0073 -0.1593
v  0.0180 0.0146 -0.1845
v  -0.0140 -0.0073 -0.1657
v  -0.0090 0.0146 -0.1943
v  -0.0327 -0.0073 -0.1657
v  -0.0377 0.0146 -0.1943
v  -0.0502 -0.0073 -0.1593
v  -0.0648 0.0146 -0.1845
v  -0.0645 -0.0073 -0.1473
v  -0.0868 0.0146 -0.1660
v  -0.0739 -0.0073 -0.1312
v  -0.1011 0.0146 -0.1411
v  -0.0771 -0.0073 -0.1128
v  -0.1061 0.0146 -0.1128
v  -0.0739 -0.0073 -0.0944
v  -0.1011 0.0146 -0.0845
v  -0.0645 -0.0073 -0.0783
v  -0.0868 0.0146 -0.0596
v  -0.0502 -0.0073 -0.0663
v  -0.0648 0.0146 -0.0411
v  -0.0327 -0.0073 -0.0599
v  -0.0377 0.0146 -0.0313
v  -0.0140 -0.0073 -0.0599
v  -0.0090 0.0146 -0.0313
v  0.0035 -0.0073 -0.0663
v  0.0180 0.0146 -0.0411
v  0.0178 -0.0073 -0.0783
v  0.0400 0.0146 -0.0596
v  0.0271 -0.0073 -0.0944
v  0.0544 0.0146 -0.0845
v  0.0303 -0.0185 -0.1128
v  0.0271 -0.0185 -0.1312
v  0.0178 -0.0185 -0.1473
v  0.0035 -0.0185 -0.1593
v  -0.0140 -0.0185 -0.1657
v  -0.0327 -0.0185 -0.1657
v  -0.0502 -0.0185 -0.1593
v  -0.0645 -0.0185 -0.1473
v  -0.0739 -0.0185 -0.1312
v  -0.0771 -0.0185 -0.1128
v  -0.0739 -0.0185 -0.0944
v  -0.0645 -0.0185 -0.0783
v  -0.0502 -0.0185 -0.0663
v  -0.0327 -0.0185 -0.0599
v  -0.0140 -0.0185 -0.0599
v  0.0035 -0.0185 -0.0663
v  0.0178 -0.0185 -0.0783
v  0.0271 -0.0185 -0.0944
v  0.0487 0.0226 -0.1390
v  0.0188 -0.0026 -0.1281
v  0.0215 -0.0026 -0.1128
v  0.0534 0.0226 -0.1128
v  0.0354 0.0226 -0.1621
v  0.0110 -0.0026 -0.1416
v  0.0150 0.0226 -0.1792
v  -0.0009 -0.0026 -0.1517
v  -0.0100 0.0226 -0.1884
v  -0.0156 -0.0026 -0.1570
v  -0.0367 0.0226 -0.1884
v  -0.0312 -0.0026 -0.1570
v  -0.0617 0.0226 -0.1792
v  -0.0458 -0.0026 -0.1517
v  -0.0822 0.0226 -0.1621
v  -0.0578 -0.0026 -0.1416
v  -0.0955 0.0226 -0.1390
v  -0.0655 -0.0026 -0.1281
v  -0.1001 0.0226 -0.1128
v  -0.0683 -0.0026 -0.1128
v  -0.0955 0.0226 -0.0865
v  -0.0655 -0.0026 -0.0974
v  -0.0822 0.0226 -0.0635
v  -0.0578 -0.0026 -0.0839
v  -0.0617 0.0226 -0.0463
v  -0.0458 -0.0026 -0.0739
v  -0.0367 0.0226 -0.0372
v  -0.0312 -0.0026 -0.0686
v  -0.0100 0.0226 -0.0372
v  -0.0156 -0.0026 -0.0686
v  0.0150 0.0226 -0.0463
v  -0.0009 -0.0026 -0.0739
v  0.0354 0.0226 -0.0635
v  0.0110 -0.0026 -0.0839
v  0.0487 0.0226 -0.0865
v  0.0188 -0.0026 -0.0974
v  0.0229 -0.0118 -0.1128
v  0.0201 -0.0118 -0.1286
v  0.0121 -0.0118 -0.1425
v  -0.0002 -0.0118 -0.1529
v  -0.0153 -0.0118 -0.1584
v  -0.0314 -0.0118 -0.1584
v  -0.0465 -0.0118 -0.1529
v  -0.0588 -0.0118 -0.1425
v  -0.0669 -0.0118 -0.1286
v  -0.0697 -0.0118 -0.1128
v  -0.0669 -0.0118 -0.0970
v  -0.0588 -0.0118 -0.0830
v  -0.0465 -0.0118 -0.0727
v  -0.0314 -0.0118 -0.0672
v  -0.0153 -0.0118 -0.0672
v  -0.0002 -0.0118 -0.0727
v  0.0121 -0.0118 -0.0830
v  0.0201 -0.0118 -0.0970
# 108 vertices

vn 0.8844 -0.4668 0.0000
vn 0.8310 -0.4668 -0.3025
vn 0.9319 -0.1287 -0.3392
vn 0.9917 -0.1287 0.0000
vn 0.6775 -0.4668 -0.5685
vn 0.7597 -0.1287 -0.6374
vn 0.4422 -0.4668 -0.7659
vn 0.4958 -0.1287 -0.8588
vn 0.1536 -0.4668 -0.8709
vn 0.1722 -0.1287 -0.9766
vn -0.1536 -0.4668 -0.8709
vn -0.1722 -0.1287 -0.9766
vn -0.4422 -0.4668 -0.7659
vn -0.4958 -0.1287 -0.8588
vn -0.6775 -0.4668 -0.5685
vn -0.7597 -0.1287 -0.6374
vn -0.8310 -0.4668 -0.3025
vn -0.9319 -0.1287 -0.3392
vn -0.8844 -0.4668 -0.0000
vn -0.9917 -0.1287 -0.0000
vn -0.8310 -0.4668 0.3025
vn -0.9319 -0.1287 0.3392
vn -0.6775 -0.4668 0.5685
vn -0.7597 -0.1287 0.6374
vn -0.4422 -0.4668 0.7659
vn -0.4958 -0.1287 0.8588
vn -0.1536 -0.4668 0.8709
vn -0.1722 -0.1287 0.9766
vn 0.1536 -0.4668 0.8709
vn 0.1722 -0.1287 0.9766
vn 0.4422 -0.4668 0.7659
vn 0.4958 -0.1287 0.8588
vn 0.6775 -0.4668 0.5685
vn 0.7597 -0.1287 0.6374
vn 0.8310 -0.4668 0.3025
vn 0.9319 -0.1287 0.3392
vn 0.7423 -0.6701 0.0000
vn 0.6975 -0.6701 -0.2539
vn 0.5687 -0.6700 -0.4772
vn 0.3712 -0.6700 -0.6429
vn 0.1289 -0.6700 -0.7311
vn -0.1289 -0.6700 -0.7311
vn -0.3712 -0.6700 -0.6429
vn -0.5686 -0.6701 -0.4772
vn -0.6975 -0.6701 -0.2539
vn -0.7423 -0.6700 -0.0000
vn -0.6976 -0.6700 0.2539
vn -0.5687 -0.6700 0.4772
vn -0.3712 -0.6700 0.6429
vn -0.1289 -0.6700 0.7311
vn 0.1289 -0.6701 0.7310
vn 0.3712 -0.6701 0.6428
vn 0.5687 -0.6700 0.4772
vn 0.6975 -0.6701 0.2539
vn 0.1908 0.9792 -0.0695
vn -0.8670 0.3858 0.3155
vn -0.9226 0.3858 0.0000
vn 0.2031 0.9792 0.0000
vn 0.1556 0.9792 -0.1305
vn -0.7068 0.3858 0.5930
vn 0.1015 0.9792 -0.1759
vn -0.4613 0.3858 0.7990
vn 0.0353 0.9792 -0.2000
vn -0.1602 0.3858 0.9086
vn -0.0353 0.9792 -0.2000
vn 0.1602 0.3858 0.9086
vn -0.1015 0.9792 -0.1759
vn 0.4613 0.3858 0.7990
vn -0.1556 0.9792 -0.1305
vn 0.7068 0.3858 0.5930
vn -0.1908 0.9792 -0.0695
vn 0.8670 0.3858 0.3155
vn -0.2031 0.9792 -0.0000
vn 0.9226 0.3858 0.0000
vn -0.1908 0.9792 0.0695
vn 0.8670 0.3858 -0.3155
vn -0.1556 0.9792 0.1305
vn 0.7068 0.3858 -0.5930
vn -0.1015 0.9792 0.1759
vn 0.4613 0.3858 -0.7990
vn -0.0353 0.9792 0.2000
vn 0.1602 0.3858 -0.9086
vn 0.0353 0.9792 0.2000
vn -0.1602 0.3858 -0.9086
vn 0.1015 0.9792 0.1759
vn -0.4613 0.3858 -0.7990
vn 0.1556 0.9792 0.1305
vn -0.7068 0.3858 -0.5930
vn 0.1908 0.9792 0.0695
vn -0.8670 0.3858 -0.3155
vn -0.7906 0.6123 0.0000
vn -0.7429 0.6123 0.2704
vn -0.6056 0.6123 0.5082
vn -0.3953 0.6123 0.6847
vn -0.1373 0.6123 0.7786
vn 0.1373 0.6123 0.7786
vn 0.3953 0.6123 0.6847
vn 0.6056 0.6123 0.5082
vn 0.7429 0.6123 0.2704
vn 0.7906 0.6123 0.0000
vn 0.7429 0.6123 -0.2704
vn 0.6056 0.6123 -0.5082
vn 0.3953 0.6123 -0.6847
vn 0.1373 0.6123 -0.7786
vn -0.1373 0.6123 -0.7786
vn -0.3953 0.6123 -0.6847
vn -0.6056 0.6123 -0.5082
vn -0.7429 0.6123 -0.2704
# 108 vertex normals

vt 0.3120 0.3967 0.0000
vt 0.2596 0.3843 0.0000
vt 0.2887 0.2905 0.0000
vt 0.3469 0.3066 0.0000
vt 0.2066 0.3671 0.0000
vt 0.2298 0.2740 0.0000
vt 0.1523 0.3504 0.0000
vt 0.1689 0.2573 0.0000
vt 0.0985 0.3372 0.0000
vt 0.1047 0.2413 0.0000
vt 0.0471 0.3325 0.0000
vt 0.0345 0.2291 0.0000
vt 0.5557 0.9379 0.0000
vt 0.5604 0.8866 0.0000
vt 0.6558 0.8976 0.0000
vt 0.6552 0.9690 0.0000
vt 0.5567 0.8315 0.0000
vt 0.6514 0.8315 0.0000
vt 0.5498 0.7753 0.0000
vt 0.6455 0.7686 0.0000
vt 0.5419 0.7201 0.0000
vt 0.6393 0.7078 0.0000
vt 0.5387 0.6664 0.0000
vt 0.6334 0.6476 0.0000
vt 0.5326 0.6150 0.0000
vt 0.6245 0.5880 0.0000
vt 0.5225 0.5669 0.0000
vt 0.6096 0.5297 0.0000
vt 0.5062 0.5228 0.0000
vt 0.5863 0.4743 0.0000
vt 0.4814 0.4844 0.0000
vt 0.5527 0.4245 0.0000
vt 0.4479 0.4534 0.0000
vt 0.5094 0.3829 0.0000
vt 0.4073 0.4298 0.0000
vt 0.4589 0.3504 0.0000
vt 0.3615 0.4115 0.0000
vt 0.4041 0.3257 0.0000
vt 0.3041 0.4265 0.0000
vt 0.2527 0.4201 0.0000
vt 0.1980 0.3963 0.0000
vt 0.1458 0.3795 0.0000
vt 0.0953 0.3672 0.0000
vt 0.0458 0.3625 0.0000
vt 0.5260 0.9339 0.0000
vt 0.5302 0.8845 0.0000
vt 0.5270 0.8328 0.0000
vt 0.5194 0.7786 0.0000
vt 0.5055 0.7208 0.0000
vt 0.5079 0.6690 0.0000
vt 0.5028 0.6200 0.0000
vt 0.4948 0.5744 0.0000
vt 0.4816 0.5347 0.0000
vt 0.4609 0.5017 0.0000
vt 0.4319 0.4756 0.0000
vt 0.3951 0.4557 0.0000
vt 0.3516 0.4400 0.0000
vt 0.4584 0.7535 0.0000
vt 0.3880 0.7616 0.0000
vt 0.3113 0.7374 0.0000
vt 0.2452 0.6830 0.0000
vt 0.2030 0.6085 0.0000
vt 0.1923 0.5288 0.0000
vt 0.2124 0.4609 0.0000
vt 0.2975 0.2656 0.0000
vt 0.3315 0.1651 0.0000
vt 0.3960 0.1846 0.0000
vt 0.3572 0.2827 0.0000
vt 0.2371 0.2497 0.0000
vt 0.2698 0.1490 0.0000
vt 0.1755 0.2342 0.0000
vt 0.2117 0.1349 0.0000
vt 0.1120 0.2169 0.0000
vt 0.1599 0.1210 0.0000
vt 0.0488 0.1912 0.0000
vt 0.1194 0.1014 0.0000
vt 0.6811 0.8947 0.0000
vt 0.7839 0.8642 0.0000
vt 0.7961 0.9076 0.0000
vt 0.6952 0.9614 0.0000
vt 0.6753 0.8291 0.0000
vt 0.7793 0.8106 0.0000
vt 0.6707 0.7657 0.0000
vt 0.7755 0.7506 0.0000
vt 0.6653 0.7035 0.0000
vt 0.7701 0.6869 0.0000
vt 0.6587 0.6417 0.0000
vt 0.7621 0.6202 0.0000
vt 0.6483 0.5801 0.0000
vt 0.7488 0.5504 0.0000
vt 0.6315 0.5197 0.0000
vt 0.7271 0.4790 0.0000
vt 0.6059 0.4621 0.0000
vt 0.6941 0.4088 0.0000
vt 0.5701 0.4099 0.0000
vt 0.6488 0.3438 0.0000
vt 0.5249 0.3657 0.0000
vt 0.5926 0.2880 0.0000
vt 0.4726 0.3305 0.0000
vt 0.5291 0.2434 0.0000
vt 0.4160 0.3035 0.0000
vt 0.4625 0.2097 0.0000
vt 0.7510 0.2769 0.0000
vt 0.7526 0.2737 0.0000
vt 0.7207 0.2502 0.0000
vt 0.7181 0.2527 0.0000
vt 0.6987 0.2173 0.0000
vt 0.6954 0.2187 0.0000
vt 0.6892 0.1787 0.0000
vt 0.6856 0.1790 0.0000
vt 0.6935 0.1393 0.0000
vt 0.6900 0.1383 0.0000
vt 0.7109 0.1037 0.0000
vt 0.7080 0.1016 0.0000
vt 0.7394 0.0762 0.0000
vt 0.7374 0.0732 0.0000
vt 0.7756 0.0602 0.0000
vt 0.7748 0.0567 0.0000
vt 0.8151 0.0576 0.0000
vt 0.8154 0.0540 0.0000
vt 0.8530 0.0686 0.0000
vt 0.8546 0.0654 0.0000
vt 0.8849 0.0920 0.0000
vt 0.8875 0.0895 0.0000
vt 0.9069 0.1250 0.0000
vt 0.9102 0.1235 0.0000
vt 0.9164 0.1635 0.0000
vt 0.9200 0.1633 0.0000
vt 0.9121 0.2030 0.0000
vt 0.9156 0.2040 0.0000
vt 0.8947 0.2386 0.0000
vt 0.8976 0.2407 0.0000
vt 0.8662 0.2660 0.0000
vt 0.8682 0.2691 0.0000
vt 0.8300 0.2821 0.0000
vt 0.8309 0.2856 0.0000
vt 0.7905 0.2847 0.0000
vt 0.7902 0.2883 0.0000
# 138 texture coords

o Cylinder001
g Cylinder001
usemtl wire_177148027
s 1
f 1/1/1 2/2/2 3/3/3 4/4/4 
f 2/2/2 5/5/5 6/6/6 3/3/3 
f 5/5/5 7/7/7 8/8/8 6/6/6 
f 7/7/7 9/9/9 10/10/10 8/8/8 
f 9/9/9 11/11/11 12/12/12 10/10/10 
f 11/13/11 13/14/13 14/15/14 12/16/12 
f 13/14/13 15/17/15 16/18/16 14/15/14 
f 15/17/15 17/19/17 18/20/18 16/18/16 
f 17/19/17 19/21/19 20/22/20 18/20/18 
f 19/21/19 21/23/21 22/24/22 20/22/20 
f 21/23/21 23/25/23 24/26/24 22/24/22 
f 23/25/23 25/27/25 26/28/26 24/26/24 
f 25/27/25 27/29/27 28/30/28 26/28/26 
f 27/29/27 29/31/29 30/32/30 28/30/28 
f 29/31/29 31/33/31 32/34/32 30/32/30 
f 31/33/31 33/35/33 34/36/34 32/34/32 
f 33/35/33 35/37/35 36/38/36 34/36/34 
f 35/37/35 1/1/1 4/4/4 36/38/36 
s 2
f 2/2/2 1/1/1 37/39/37 38/40/38 
f 5/5/5 2/2/2 38/40/38 39/41/39 
f 7/7/7 5/5/5 39/41/39 40/42/40 
f 9/9/9 7/7/7 40/42/40 41/43/41 
f 11/11/11 9/9/9 41/43/41 42/44/42 
f 13/14/13 11/13/11 42/45/42 43/46/43 
f 15/17/15 13/14/13 43/46/43 44/47/44 
f 17/19/17 15/17/15 44/47/44 45/48/45 
f 19/21/19 17/19/17 45/48/45 46/49/46 
f 21/23/21 19/21/19 46/49/46 47/50/47 
f 23/25/23 21/23/21 47/50/47 48/51/48 
f 25/27/25 23/25/23 48/51/48 49/52/49 
f 27/29/27 25/27/25 49/52/49 50/53/50 
f 29/31/29 27/29/27 50/53/50 51/54/51 
f 31/33/31 29/31/29 51/54/51 52/55/52 
f 33/35/33 31/33/31 52/55/52 53/56/53 
f 35/37/35 33/35/33 53/56/53 54/57/54 
f 1/1/1 35/37/35 54/57/54 37/39/37 
s 1
f 47/50/47 46/49/46 45/58/45 48/51/48 
f 48/51/48 45/58/45 44/59/44 49/52/49 
f 49/52/49 44/59/44 43/60/43 50/53/50 
f 50/53/50 43/60/43 42/61/42 51/54/51 
f 51/54/51 42/61/42 41/62/41 52/55/52 
f 52/55/52 41/62/41 40/63/40 53/56/53 
f 53/56/53 40/63/40 39/64/39 54/57/54 
f 54/57/54 39/64/39 38/40/38 37/39/37 
f 55/65/55 56/66/56 57/67/57 58/68/58 
f 59/69/59 60/70/60 56/66/56 55/65/55 
f 61/71/61 62/72/62 60/70/60 59/69/59 
f 63/73/63 64/74/64 62/72/62 61/71/61 
f 65/75/65 66/76/66 64/74/64 63/73/63 
f 67/77/67 68/78/68 66/79/66 65/80/65 
f 69/81/69 70/82/70 68/78/68 67/77/67 
f 71/83/71 72/84/72 70/82/70 69/81/69 
f 73/85/73 74/86/74 72/84/72 71/83/71 
f 75/87/75 76/88/76 74/86/74 73/85/73 
f 77/89/77 78/90/78 76/88/76 75/87/75 
f 79/91/79 80/92/80 78/90/78 77/89/77 
f 81/93/81 82/94/82 80/92/80 79/91/79 
f 83/95/83 84/96/84 82/94/82 81/93/81 
f 85/97/85 86/98/86 84/96/84 83/95/83 
f 87/99/87 88/100/88 86/98/86 85/97/85 
f 89/101/89 90/102/90 88/100/88 87/99/87 
f 58/68/58 57/67/57 90/102/90 89/101/89 
s 2
f 91/103/91 57/104/57 56/105/56 92/106/92 
f 92/106/92 56/105/56 60/107/60 93/108/93 
f 93/108/93 60/107/60 62/109/62 94/110/94 
f 94/110/94 62/109/62 64/111/64 95/112/95 
f 95/112/95 64/111/64 66/113/66 96/114/96 
f 96/114/96 66/113/66 68/115/68 97/116/97 
f 97/116/97 68/115/68 70/117/70 98/118/98 
f 98/118/98 70/117/70 72/119/72 99/120/99 
f 99/120/99 72/119/72 74/121/74 100/122/100 
f 100/122/100 74/121/74 76/123/76 101/124/101 
f 101/124/101 76/123/76 78/125/78 102/126/102 
f 102/126/102 78/125/78 80/127/80 103/128/103 
f 103/128/103 80/127/80 82/129/82 104/130/104 
f 104/130/104 82/129/82 84/131/84 105/132/105 
f 105/132/105 84/131/84 86/133/86 106/134/106 
f 106/134/106 86/133/86 88/135/88 107/136/107 
f 107/136/107 88/135/88 90/137/90 108/138/108 
f 108/138/108 90/137/90 57/104/57 91/103/91 
s 1
f 99/120/99 100/122/100 101/124/101 102/126/102 
f 98/118/98 99/120/99 102/126/102 103/128/103 
f 97/116/97 98/118/98 103/128/103 104/130/104 
f 96/114/96 97/116/97 104/130/104 105/132/105 
f 95/112/95 96/114/96 105/132/105 106/134/106 
f 94/110/94 95/112/95 106/134/106 107/136/107 
f 93/108/93 94/110/94 107/136/107 108/138/108 
f 92/106/92 93/108/93 108/138/108 91/103/91 
s 2
f 4/4/4 3/3/3 55/65/55 58/68/58 
f 3/3/3 6/6/6 59/69/59 55/65/55 
f 6/6/6 8/8/8 61/71/61 59/69/59 
f 8/8/8 10/10/10 63/73/63 61/71/61 
f 10/10/10 12/12/12 65/75/65 63/73/63 
f 12/16/12 14/15/14 67/77/67 65/80/65 
f 14/15/14 16/18/16 69/81/69 67/77/67 
f 16/18/16 18/20/18 71/83/71 69/81/69 
f 18/20/18 20/22/20 73/85/73 71/83/71 
f 20/22/20 22/24/22 75/87/75 73/85/73 
f 22/24/22 24/26/24 77/89/77 75/87/75 
f 24/26/24 26/28/26 79/91/79 77/89/77 
f 26/28/26 28/30/28 81/93/81 79/91/79 
f 28/30/28 30/32/30 83/95/83 81/93/81 
f 30/32/30 32/34/32 85/97/85 83/95/83 
f 32/34/32 34/36/34 87/99/87 85/97/85 
f 34/36/34 36/38/36 89/101/89 87/99/87 
f 36/38/36 4/4/4 58/68/58 89/101/89 
# 106 polygons

